<?xml version="1.0" encoding="UTF-8"?>
<svg version="1.1" xmlns="http://www.w3.org/2000/svg" width="161" height="108">
<path d="M0 0 C10.18146688 8.11444754 18.7320562 20.38112452 20.82421875 33.5390625 C22.09727387 51.36183412 19.37327721 66.72158653 7.4375 80.75 C-3.46750773 92.01254897 -17.01062055 97.86344193 -32.625 98.4375 C-47.53819417 97.72309549 -61.04882292 92.67343457 -71.9375 82.28515625 C-82.42089396 70.67003226 -87.46685075 57.06567056 -87.2734375 41.4765625 C-86.10895 26.67093569 -80.61320555 13.3650307 -69.640625 3.1015625 C-49.10286073 -13.24358126 -21.92061044 -15.17580723 0 0 Z M-57.75 19.6640625 C-65.18352595 27.80377341 -67.49346255 36.26565848 -67.2734375 47.13671875 C-66.63418683 56.16841749 -62.38743505 63.66104643 -56 70 C-46.52672469 77.01112451 -37.69926361 79.03304756 -26 78 C-16.50178573 75.71001957 -8.79682612 70.02098964 -3.25 62.0625 C1.68207239 53.92458055 2.93029205 45.21754347 0.9375 35.9375 C-1.94960931 25.79360243 -8.1323525 18.22328229 -17.08984375 12.71484375 C-31.13001034 5.63128773 -46.61873422 9.07942138 -57.75 19.6640625 Z " fill="#10C9B6" transform="translate(140,10)"/>
<path d="M0 0 C6.27 0 12.54 0 19 0 C19 35.31 19 70.62 19 107 C12.73 107 6.46 107 0 107 C0 71.69 0 36.38 0 0 Z " fill="#24484E" transform="translate(0,1)"/>
</svg>
